<?xml version="1.0" standalone="no"?>
<!DOCTYPE svg PUBLIC "-//W3C//DTD SVG 20010904//EN"
 "http://www.w3.org/TR/2001/REC-SVG-20010904/DTD/svg10.dtd">
<svg version="1.0" xmlns="http://www.w3.org/2000/svg"
 width="512.000000pt" height="512.000000pt" viewBox="0 0 512.000000 512.000000"
 preserveAspectRatio="xMidYMid meet">
<metadata>
Created by potrace 1.14, written by Peter Selinger 2001-2017
</metadata>
<g transform="translate(0.000000,512.000000) scale(0.100000,-0.100000)"
fill="#000000" stroke="none">
<path d="M196 4869 c-39 -30 -34 -75 18 -191 92 -205 287 -502 481 -734 50
-59 94 -113 100 -120 7 -10 1 -23 -21 -46 -74 -78 -155 -233 -194 -368 -28
-95 -38 -307 -20 -416 19 -119 81 -280 141 -365 18 -26 18 -26 -7 -50 -45 -42
-131 -152 -167 -215 -221 -377 -157 -864 153 -1174 115 -116 275 -208 435
-252 66 -18 108 -22 240 -22 156 -1 223 9 326 49 12 4 19 -5 28 -37 67 -223
293 -463 529 -563 123 -51 195 -66 342 -72 226 -8 394 39 579 164 l93 64 39
-45 c165 -188 438 -306 707 -306 504 -1 920 390 958 900 21 272 -99 572 -304
762 l-60 55 26 33 c50 65 113 187 143 279 147 458 -63 949 -496 1162 -119 58
-228 88 -350 96 -49 3 -93 11 -97 17 -4 6 -8 31 -8 56 -1 152 -88 371 -205
518 -127 158 -325 285 -520 334 -115 28 -332 31 -437 5 -229 -56 -453 -205
-571 -379 -17 -26 -34 -46 -37 -45 -3 1 -52 26 -110 54 -158 79 -233 96 -420
97 -211 0 -335 -33 -506 -136 l-68 -41 -48 54 c-175 195 -384 502 -490 719
-40 80 -79 153 -87 163 -20 24 -82 22 -115 -4z"/>
</g>
</svg>
